HIERARCHY
ROOT Hips
{
  OFFSET 0 0 0
  CHANNELS 6 Xposition Yposition Zposition Zrotation Yrotation Xrotation
  JOINT LeftThigh
  {
    OFFSET 8.409438 0 -5.917753
    CHANNELS 3 Zrotation Yrotation Xrotation
    JOINT LeftLeg
    {
      OFFSET 0 0 -42.358652
      CHANNELS 3 Zrotation Yrotation Xrotation
      JOINT LeftFoot
      {
        OFFSET 0 0 -39.357303
        CHANNELS 3 Zrotation Yrotation Xrotation
      }
    }
  }
  JOINT RightThigh
  {
    OFFSET -8.409438 0 -5.917753
    CHANNELS 3 Zrotation Yrotation Xrotation
    JOINT RightLeg
    {
      OFFSET 0 0 -42.358652
      CHANNELS 3 Zrotation Yrotation Xrotation
      JOINT RightFoot
      {
        OFFSET 0 0 -39.357303
        CHANNELS 3 Zrotation Yrotation Xrotation
      }
    }
  }
  JOINT SpineLow
  {
    OFFSET 0 0 4.719101
    CHANNELS 3 Zrotation Yrotation Xrotation
    JOINT SpineMid
    {
      OFFSET 0 0 12.899191
      CHANNELS 3 Zrotation Yrotation Xrotation
      JOINT Chest
      {
        OFFSET 0 0 12.899191
        CHANNELS 3 Zrotation Yrotation Xrotation
        JOINT LeftShoulder
        {
          OFFSET 7.550562 1.41573 9.438202
          CHANNELS 3 Zrotation Yrotation Xrotation
          JOINT LeftArm
          {
            OFFSET 9.155056 0 4.247191
            CHANNELS 3 Zrotation Yrotation Xrotation
            JOINT LeftForearm
            {
              OFFSET 0 0 25.771955
              CHANNELS 3 Zrotation Yrotation Xrotation
              JOINT LeftHand
              {
                OFFSET 0 0 25.197169
                CHANNELS 3 Zrotation Yrotation Xrotation
              }
            }
          }
        }
        JOINT RightShoulder
        {
          OFFSET -7.550562 1.41573 9.438202
          CHANNELS 3 Zrotation Yrotation Xrotation
          JOINT RightArm
          {
            OFFSET -9.155056 0 4.247191
            CHANNELS 3 Zrotation Yrotation Xrotation
            JOINT RightForearm
            {
              OFFSET 0 0 -25.771955
              CHANNELS 3 Zrotation Yrotation Xrotation
              JOINT RightHand
              {
                OFFSET 0 0 -25.197169
                CHANNELS 3 Zrotation Yrotation Xrotation
              }
            }
          }
        }
        JOINT Neck
        {
          OFFSET 0 0 15.101124
          CHANNELS 3 Zrotation Yrotation Xrotation
          JOINT Head
          {
            OFFSET 0 0 11.325843
            CHANNELS 3 Zrotation Yrotation Xrotation
            End Site
            {
              OFFSET 0 0 14.157303
            }
          }
        }
      }
    }
  }
}
MOTION
Frames: 7
Frame Time: 0.01
0.0  101.685394  0.0  -2.421522  35.139297  -99.269053  23.565997  -21.289307  -9.159364  -19.743638  13.338018  27.394069  2.277448  1.612951  2.008826  -22.886477  16.153373  -0.633253  -4.295862  4.400257  22.487198  -1.181778  3.308469  -2.681637  -3.939726  -0.402012  0.779303  -10.781239  -0.968667  2.18917  -10.781239  -0.968667  2.18917  -15.338188  29.155853  1.737182  97.155672  59.346403  -176.813212  -32.578082  8.426272  96.757098  65.983091  -0.578928  -10.816731  19.846281  -5.924064  18.532278  50.661479  67.112966  -11.491278  -20.494529  -20.470647  -110.348004  75.615226  -3.780124  -9.515961  3.950945  -1.435802  -2.967764  2.956163  -1.096122  -2.216533  
0.0  101.685394  0.0  -2.369871  39.22531  -99.337537  22.026578  -21.203178  -8.495351  -21.079092  13.574306  25.462413  1.491476  1.505452  1.687415  -23.290367  16.478895  0.845711  -5.887689  4.365943  21.285997  -2.05988  3.173308  -2.67591  -4.112496  -0.298505  0.738054  -11.249384  -0.687894  2.061424  -11.249384  -0.687894  2.061424  -13.763751  28.61457  1.21267  100.313677  55.740483  -173.244563  -29.780479  10.173847  97.380594  67.297584  -0.611597  -11.382132  20.362317  -4.485762  17.159221  45.071101  68.282727  -14.900906  -20.345256  -18.995943  -111.073401  79.22406  -5.334937  -10.266975  2.705264  -1.564768  -3.161724  2.020789  -1.187636  -2.364273  
0.0  101.685394  0.0  -2.094657  42.827844  -99.17331  20.272633  -20.937601  -7.718693  -21.709725  13.551179  23.721391  0.718007  1.418159  1.419563  -23.657713  16.725254  2.123399  -7.336911  4.45485  19.987976  -2.944647  2.991904  -2.681518  -4.043552  -0.217122  0.726302  -11.058195  -0.470326  2.015163  -11.058195  -0.470326  2.015163  -12.834242  28.155876  0.789795  104.751535  52.325166  -169.741251  -25.537691  10.673826  99.029627  69.123547  -0.154131  -10.068218  19.839396  -2.954684  15.251035  37.817463  69.82213  -19.59305  -20.950137  -15.810357  -110.952193  82.249912  -5.711829  -9.521449  1.006185  -1.472594  -3.421612  0.746379  -1.110123  -2.563652  
0.0  101.685394  0.0  -1.64153  45.870788  -98.927109  18.157224  -20.55304  -6.73432  -23.720973  14.310016  20.816966  2.182838  1.173383  2.031426  -24.116897  16.994605  3.294967  -8.610147  4.579618  18.665806  -3.443872  2.815005  -2.690168  -3.641508  -0.185152  0.810565  -9.958723  -0.382868  2.237687  -9.958723  -0.382868  2.237687  -13.116612  27.442683  0.573186  108.977886  49.99182  -167.146253  -21.853068  12.210666  100.68083  67.996792  -1.66037  -11.272961  17.732556  -1.271193  12.819876  31.05126  71.912773  -23.833034  -22.796213  -11.148593  -110.441978  84.653712  -5.661353  -6.654254  -1.427403  -1.143214  -3.855707  -1.077781  -0.848451  -2.894373  
0.0  101.685394  0.0  -1.030683  48.081069  -98.544167  16.244809  -19.953792  -5.615963  -23.304372  13.869392  19.400888  1.854438  1.001462  1.953781  -24.644352  17.4371  4.249916  -9.709867  4.547049  17.367462  -3.903344  2.627006  -2.711832  -2.938382  -0.21639  1.052266  -8.039564  -0.462649  2.897695  -8.039564  -0.462649  2.897695  -14.545391  26.324782  -0.304095  112.643869  47.964072  -165.43927  -18.955693  14.770552  101.981618  66.85639  -5.174633  -9.956043  14.525097  0.673768  9.514166  26.733454  75.25502  -25.845113  -26.737538  -5.42631  -109.256152  86.350369  -5.607201  -1.826844  -4.323415  -0.699189  -4.722927  -3.248154  -0.491043  -3.547309  
0.0  101.685394  0.0  -0.247243  49.341737  -97.928992  14.983194  -19.172138  -4.472046  -22.766095  13.239142  18.140483  -0.003158  0.7925  1.059778  -25.273369  18.083657  4.748767  -10.66755  4.435174  16.231153  -4.014482  2.537683  -2.701657  -2.066126  -0.27747  1.711385  -5.66408  -0.611283  4.697795  -5.664079  -0.611283  4.697795  -16.986835  24.394995  -3.78162  113.501692  46.630174  -165.925477  -18.590595  16.723  102.278607  65.884605  -9.313585  -4.686453  10.66357  2.822283  3.626865  21.876123  80.00618  -28.425015  -31.773843  0.830209  -107.583457  87.120895  -5.355477  4.895193  -7.299458  -0.570138  -7.105388  -5.482055  -0.342839  -5.336709  
0.0  101.685394  0.0  0.487574  49.984264  -97.28253  14.117506  -18.358512  -3.331662  -22.063587  12.459238  17.067177  -0.463885  0.528024  1.01855  -26.508485  18.869051  4.692768  -11.20074  4.279918  15.374072  -3.383701  2.455591  -2.681797  -1.553415  -0.267429  1.720089  -4.262767  -0.619805  4.716763  -4.262767  -0.619805  4.716764  -14.843581  24.163371  -2.669293  112.247695  46.096644  -168.691618  -21.13978  16.461572  102.068013  65.211566  -12.572064  1.609293  10.094809  4.453558  2.49473  4.555073  85.40173  -42.757994  -36.959656  8.010125  -105.008595  87.42727  -4.990006  13.388872  -8.358896  -0.092958  -7.02438  -6.271223  0.026384  -5.270727  
